<?xml version="1.0" encoding="UTF-8" standalone="no"?>
<!DOCTYPE svg PUBLIC "-//W3C//DTD SVG 1.1//EN"
 "http://www.w3.org/Graphics/SVG/1.1/DTD/svg11.dtd">
<!-- Generated by graphviz version 2.47.0 (20210316.0004)
 -->
<!-- Title: dependencies Pages: 1 -->
<svg width="1614pt" height="284pt"
 viewBox="0.00 0.00 1614.00 284.00" xmlns="http://www.w3.org/2000/svg" xmlns:xlink="http://www.w3.org/1999/xlink">
<g id="graph0" class="graph" transform="scale(1 1) rotate(0) translate(4 280)">
<title>dependencies</title>
<polygon fill="white" stroke="transparent" points="-4,4 -4,-280 1610,-280 1610,4 -4,4"/>
<text text-anchor="start" x="782.01" y="-42.4" font-family="Times-12" font-weight="bold" font-size="14.00">Legend</text>
<polygon fill="#ffffb3" stroke="transparent" points="569,-10 569,-30 589,-30 589,-10 569,-10"/>
<text text-anchor="start" x="592.63" y="-15.4" font-family="Times-12" font-size="14.00"> &#160;Declarations</text>
<polygon fill="#8dd3c7" stroke="transparent" points="682,-10 682,-30 702,-30 702,-10 682,-10"/>
<text text-anchor="start" x="705.73" y="-15.4" font-family="Times-12" font-size="14.00"> &#160;Module</text>
<polygon fill="#80b1d3" stroke="transparent" points="768,-10 768,-30 788,-30 788,-10 768,-10"/>
<text text-anchor="start" x="791.78" y="-15.4" font-family="Times-12" font-size="14.00"> &#160;Bootstrap</text>
<polygon fill="#fdb462" stroke="transparent" points="865,-10 865,-30 885,-30 885,-10 865,-10"/>
<text text-anchor="start" x="888.67" y="-15.4" font-family="Times-12" font-size="14.00"> &#160;Providers</text>
<polygon fill="#fb8072" stroke="transparent" points="961,-10 961,-30 981,-30 981,-10 961,-10"/>
<text text-anchor="start" x="984.73" y="-15.4" font-family="Times-12" font-size="14.00"> &#160;Exports</text>
<g id="clust1" class="cluster">
<title>cluster_AppModule</title>
<polygon fill="none" stroke="black" stroke-dasharray="1,5" points="8,-70 8,-268 1598,-268 1598,-70 8,-70"/>
</g>
<g id="clust14" class="cluster">
<title>cluster_AppModule_bootstrap</title>
<polygon fill="none" stroke="black" points="719,-208 719,-260 843,-260 843,-208 719,-208"/>
</g>
<g id="clust12" class="cluster">
<title>cluster_AppModule_imports</title>
<polygon fill="none" stroke="black" points="1446,-78 1446,-130 1590,-130 1590,-78 1446,-78"/>
</g>
<g id="clust2" class="cluster">
<title>cluster_AppModule_declarations</title>
<polygon fill="none" stroke="black" points="16,-78 16,-130 1438,-130 1438,-78 16,-78"/>
</g>
<!-- AddCommentPageComponent -->
<g id="node1" class="node">
<title>AddCommentPageComponent</title>
<polygon fill="#ffffb3" stroke="black" points="1429.87,-122 1242.13,-122 1242.13,-86 1429.87,-86 1429.87,-122"/>
<text text-anchor="middle" x="1336" y="-99.8" font-family="Times,serif" font-size="14.00">AddCommentPageComponent</text>
</g>
<!-- AppModule -->
<g id="node10" class="node">
<title>AppModule</title>
<polygon fill="#8dd3c7" stroke="black" points="822.66,-187 819.66,-191 798.66,-191 795.66,-187 739.34,-187 739.34,-151 822.66,-151 822.66,-187"/>
<text text-anchor="middle" x="781" y="-164.8" font-family="Times,serif" font-size="14.00">AppModule</text>
</g>
<!-- AddCommentPageComponent&#45;&gt;AppModule -->
<g id="edge1" class="edge">
<title>AddCommentPageComponent&#45;&gt;AppModule</title>
<path fill="none" stroke="black" d="M1336,-122.13C1336,-142.57 1336,-173 1336,-173 1336,-173 832.72,-173 832.72,-173"/>
<polygon fill="black" stroke="black" points="832.72,-169.5 822.72,-173 832.72,-176.5 832.72,-169.5"/>
</g>
<!-- AppComponent -->
<g id="node2" class="node">
<title>AppComponent</title>
<polygon fill="#ffffb3" stroke="black" points="1223.94,-122 1118.06,-122 1118.06,-86 1223.94,-86 1223.94,-122"/>
<text text-anchor="middle" x="1171" y="-99.8" font-family="Times,serif" font-size="14.00">AppComponent</text>
</g>
<!-- AppComponent&#45;&gt;AppModule -->
<g id="edge2" class="edge">
<title>AppComponent&#45;&gt;AppModule</title>
<path fill="none" stroke="black" d="M1171,-122.27C1171,-140.56 1171,-166 1171,-166 1171,-166 832.74,-166 832.74,-166"/>
<polygon fill="black" stroke="black" points="832.74,-162.5 822.74,-166 832.74,-169.5 832.74,-162.5"/>
</g>
<!-- DetailedPostComponent -->
<g id="node3" class="node">
<title>DetailedPostComponent</title>
<polygon fill="#ffffb3" stroke="black" points="1100.37,-122 947.63,-122 947.63,-86 1100.37,-86 1100.37,-122"/>
<text text-anchor="middle" x="1024" y="-99.8" font-family="Times,serif" font-size="14.00">DetailedPostComponent</text>
</g>
<!-- DetailedPostComponent&#45;&gt;AppModule -->
<g id="edge3" class="edge">
<title>DetailedPostComponent&#45;&gt;AppModule</title>
<path fill="none" stroke="black" d="M1024,-122.01C1024,-138.05 1024,-159 1024,-159 1024,-159 832.77,-159 832.77,-159"/>
<polygon fill="black" stroke="black" points="832.77,-155.5 822.77,-159 832.77,-162.5 832.77,-155.5"/>
</g>
<!-- HomePageComponent -->
<g id="node4" class="node">
<title>HomePageComponent</title>
<polygon fill="#ffffb3" stroke="black" points="929.26,-122 786.74,-122 786.74,-86 929.26,-86 929.26,-122"/>
<text text-anchor="middle" x="858" y="-99.8" font-family="Times,serif" font-size="14.00">HomePageComponent</text>
</g>
<!-- HomePageComponent&#45;&gt;AppModule -->
<g id="edge4" class="edge">
<title>HomePageComponent&#45;&gt;AppModule</title>
<path fill="none" stroke="black" d="M804.73,-122.11C804.73,-122.11 804.73,-140.99 804.73,-140.99"/>
<polygon fill="black" stroke="black" points="801.23,-140.99 804.73,-150.99 808.23,-140.99 801.23,-140.99"/>
</g>
<!-- IdeaListComponent -->
<g id="node5" class="node">
<title>IdeaListComponent</title>
<polygon fill="#ffffb3" stroke="black" points="768.7,-122 641.3,-122 641.3,-86 768.7,-86 768.7,-122"/>
<text text-anchor="middle" x="705" y="-99.8" font-family="Times,serif" font-size="14.00">IdeaListComponent</text>
</g>
<!-- IdeaListComponent&#45;&gt;AppModule -->
<g id="edge5" class="edge">
<title>IdeaListComponent&#45;&gt;AppModule</title>
<path fill="none" stroke="black" d="M753.89,-122.11C753.89,-122.11 753.89,-140.99 753.89,-140.99"/>
<polygon fill="black" stroke="black" points="750.39,-140.99 753.89,-150.99 757.39,-140.99 750.39,-140.99"/>
</g>
<!-- IdeaSubmission -->
<g id="node6" class="node">
<title>IdeaSubmission</title>
<polygon fill="#ffffb3" stroke="black" points="623.93,-122 518.07,-122 518.07,-86 623.93,-86 623.93,-122"/>
<text text-anchor="middle" x="571" y="-99.8" font-family="Times,serif" font-size="14.00">IdeaSubmission</text>
</g>
<!-- IdeaSubmission&#45;&gt;AppModule -->
<g id="edge6" class="edge">
<title>IdeaSubmission&#45;&gt;AppModule</title>
<path fill="none" stroke="black" d="M571,-122.01C571,-138.05 571,-159 571,-159 571,-159 729.26,-159 729.26,-159"/>
<polygon fill="black" stroke="black" points="729.26,-162.5 739.26,-159 729.26,-155.5 729.26,-162.5"/>
</g>
<!-- LoginPageComponent -->
<g id="node7" class="node">
<title>LoginPageComponent</title>
<polygon fill="#ffffb3" stroke="black" points="499.99,-122 358.01,-122 358.01,-86 499.99,-86 499.99,-122"/>
<text text-anchor="middle" x="429" y="-99.8" font-family="Times,serif" font-size="14.00">LoginPageComponent</text>
</g>
<!-- LoginPageComponent&#45;&gt;AppModule -->
<g id="edge7" class="edge">
<title>LoginPageComponent&#45;&gt;AppModule</title>
<path fill="none" stroke="black" d="M429,-122.27C429,-140.56 429,-166 429,-166 429,-166 729.24,-166 729.24,-166"/>
<polygon fill="black" stroke="black" points="729.24,-169.5 739.24,-166 729.24,-162.5 729.24,-169.5"/>
</g>
<!-- OtherProfileComponent -->
<g id="node8" class="node">
<title>OtherProfileComponent</title>
<polygon fill="#ffffb3" stroke="black" points="339.8,-122 188.2,-122 188.2,-86 339.8,-86 339.8,-122"/>
<text text-anchor="middle" x="264" y="-99.8" font-family="Times,serif" font-size="14.00">OtherProfileComponent</text>
</g>
<!-- OtherProfileComponent&#45;&gt;AppModule -->
<g id="edge8" class="edge">
<title>OtherProfileComponent&#45;&gt;AppModule</title>
<path fill="none" stroke="black" d="M264,-122.13C264,-142.57 264,-173 264,-173 264,-173 729.13,-173 729.13,-173"/>
<polygon fill="black" stroke="black" points="729.13,-176.5 739.13,-173 729.13,-169.5 729.13,-176.5"/>
</g>
<!-- ProfilepageComponent -->
<g id="node9" class="node">
<title>ProfilepageComponent</title>
<polygon fill="#ffffb3" stroke="black" points="169.86,-122 24.14,-122 24.14,-86 169.86,-86 169.86,-122"/>
<text text-anchor="middle" x="97" y="-99.8" font-family="Times,serif" font-size="14.00">ProfilepageComponent</text>
</g>
<!-- ProfilepageComponent&#45;&gt;AppModule -->
<g id="edge9" class="edge">
<title>ProfilepageComponent&#45;&gt;AppModule</title>
<path fill="none" stroke="black" d="M97,-122.01C97,-144.49 97,-180 97,-180 97,-180 729.24,-180 729.24,-180"/>
<polygon fill="black" stroke="black" points="729.24,-183.5 739.24,-180 729.24,-176.5 729.24,-183.5"/>
</g>
<!-- AppComponent  -->
<g id="node12" class="node">
<title>AppComponent </title>
<polygon fill="#80b1d3" stroke="black" points="835.44,-252 726.56,-252 726.56,-216 835.44,-216 835.44,-252"/>
<text text-anchor="middle" x="781" y="-229.8" font-family="Times,serif" font-size="14.00">AppComponent </text>
</g>
<!-- AppModule&#45;&gt;AppComponent  -->
<g id="edge11" class="edge">
<title>AppModule&#45;&gt;AppComponent </title>
<path fill="none" stroke="black" stroke-dasharray="1,5" d="M781,-187.11C781,-187.11 781,-205.99 781,-205.99"/>
<polygon fill="black" stroke="black" points="777.5,-205.99 781,-215.99 784.5,-205.99 777.5,-205.99"/>
</g>
<!-- AppRoutingModule -->
<g id="node11" class="node">
<title>AppRoutingModule</title>
<polygon fill="#8dd3c7" stroke="black" points="1582.27,-122 1579.27,-126 1558.27,-126 1555.27,-122 1453.73,-122 1453.73,-86 1582.27,-86 1582.27,-122"/>
<text text-anchor="middle" x="1518" y="-99.8" font-family="Times,serif" font-size="14.00">AppRoutingModule</text>
</g>
<!-- AppRoutingModule&#45;&gt;AppModule -->
<g id="edge10" class="edge">
<title>AppRoutingModule&#45;&gt;AppModule</title>
<path fill="none" stroke="black" d="M1518,-122.01C1518,-144.49 1518,-180 1518,-180 1518,-180 832.74,-180 832.74,-180"/>
<polygon fill="black" stroke="black" points="832.74,-176.5 822.74,-180 832.74,-183.5 832.74,-176.5"/>
</g>
</g>
</svg>
